<?xml version="1.0" encoding="UTF-8"?>
<svg id="Capa_1" xmlns="http://www.w3.org/2000/svg" version="1.1" viewBox="0 0 512 512">
  <!-- Generator: Adobe Illustrator 29.8.2, SVG Export Plug-In . SVG Version: 2.1.1 Build 3)  -->
  <defs>
    <style>
      .st0 {
        fill: #e74714;
      }
    </style>
  </defs>
  <path class="st0" d="M349.6,75.84c28.33-1.8,79.79.38,103,17.64,20.14,14.97,48.57,73.24,51.79,98.02.79,6.06-1.99,9.05-8.27,8.26-68.06-38.74-145.16-38.85-208.42,9.25-12.62,9.6-27.98,30.95-43.88,30.02-10.43-.61-38.53-15.4-48.27-21.35-7.67-4.69-30.94-21.31-34.91-28.35-5.13-9.1,3.19-16.24,8.85-22.61,44.83-50.46,112.05-86.56,180.12-90.87Z"/>
  <path class="st0" d="M100.6,301.54c-27.75-27.73-47.77-60.45-61.08-97.61-16.82-46.95-19.07-63.44,11.45-104.06,6.82-9.08,26.01-32.29,34.7-38.05,4.2-2.78,8.16-2.76,10.88,1.78,1.84,38.17,9.36,76.76,29.7,109.48,22.86,36.76,54.45,57.96,93.15,75.56,13.39,6.09,27.41,6.41,32.03,22.8,6.03,21.4,5.66,71.87-1.27,93-4.65,14.18-20.27,6.85-31.33,3.92-44.46-11.78-85.88-34.49-118.23-66.82Z"/>
  <path class="st0" d="M187.75,488.12c36.42-26.49,63.95-65.31,76.13-108.91,7.4-26.51,9.99-57.6,7.9-84.87-1.01-13.22-7.97-34.17-1.26-45.57,7.84-13.33,39.82-35.8,53.97-43.03,5.95-3.04,21.37-11.12,27.42-8.39,3.74,1.69,9.34,20.23,10.84,25,28.19,89.82,16.29,199.03-51.41,268.65-23.81,24.49-70.78,19.12-101.96,13.36-8.98-1.66-29.12-3.05-21.63-16.23Z"/>
  <path class="st0" d="M85.8,310.01c35.51,36.43,74.78,57.22,122.96,72.65,5.74,1.84,24.36,5.23,27.19,8.94,5.52,7.24-2.24,19.31-6.17,26.28-5.81,10.28-23.4,34.92-32.92,40.9-7.45,4.67-28.92-3.7-37.4-6.79-50.51-18.36-99.7-57.61-130.62-101.36C-1.44,307.75-4.78,256.83,4.46,206.25c.62-3.41,3.58-19.85,5.48-21.14.92-.62,2.73-1.1,3.83-.83,1.52.6,2.39,1.92,3.07,3.32,3.2,6.59,5.32,18.01,8.19,25.55,13.84,36.38,33.62,68.99,60.77,96.85Z"/>
  <path class="st0" d="M382.25,188.63c22.7-3.27,65.06.88,77.25,23.42,14.25,26.36,13.26,97.34,9.32,127.46-9.99,76.31-36.63,114.37-107.02,146.04-4.07,1.83-19.74,8.9-23.02,8.6-10.54-.99,3.91-16.16,6-19.28,53.27-79.58,60.9-162.1,35.09-253.82-3.23-11.49-15.71-29.81,2.39-32.42Z"/>
  <path class="st0" d="M421.39,62.76l-47.81-4.15c-85.24-1.36-165.38,37.47-220.41,101.28-13.52,7.37-17.96-5.44-22.53-15.45-5.84-12.78-15.97-42.28-12.51-55.45,6.63-25.26,63.71-59.3,87.24-68.81,71.55-28.93,131.51-21.5,194.77,21.36,3.93,2.66,21.11,14.79,21.93,18.06.27,1.06-.35,2.18-.68,3.16Z"/>
  <path class="st0" d="M480.55,376.03c-1.86.25-1.05-2.39-.92-3.55.9-8.19,3.77-17.16,4.97-25.61,4.38-30.9,5.07-65.71,1.09-96.7-1.16-9.06-6.52-26.39-6.28-33.89.28-8.5,14.67,1.18,18.36,3.88,5,3.68,10.55,10.15,12.24,16.23,5.74,20.64-1.77,63.86-7.62,85.04-5.25,19.02-13.54,36.83-21.86,54.6Z"/>
  <path class="st0" d="M174.77,474.12c-.17,6.83-12.58,11.4-18.43,11.66-7.95.34-20.16-6.86-27.22-10.83-33.74-18.95-62.79-47.5-85.09-78.86,1.98-.46,2.51,1.1,3.69,2.1,3.85,3.24,7.27,7.67,11.05,11.09,33.12,29.88,72.6,53.37,116,64.85Z"/>
  <path class="st0" d="M202.19,2.78l-25.32,12.09c-14.96,8.04-28.43,17.32-41.6,27.99-4.38,3.55-15.03,17.77-20.51,9.9-1.29-1.85-1.84-11.31-.92-12.89.38-.65,10.92-6.67,12.78-7.77,23.31-13.79,49.15-23.47,75.57-29.33Z"/>
</svg>