<?xml version="1.0" encoding="UTF-8"?>
<svg id="Capa_1" xmlns="http://www.w3.org/2000/svg" version="1.1" viewBox="0 0 512 512">
  <!-- Generator: Adobe Illustrator 29.8.2, SVG Export Plug-In . SVG Version: 2.1.1 Build 3)  -->
  <defs>
    <style>
      .st0 {
        fill: #e74714;
      }
    </style>
  </defs>
  <path class="st0" d="M423.06,349.36c0,89.82-72.82,162.64-162.64,162.64s-162.64-72.82-162.64-162.64,72.82-162.64,162.64-162.64,162.64,72.82,162.64,162.64ZM241.01,320.1c-1.43,4.54-5.68,7.6-10.44,7.6h-64.84l52.25,38.14c3.74,2.73,5.34,7.52,4,11.95l-18.35,60.62,50.56-35.68c3.72-2.63,8.69-2.66,12.45-.07l52.02,35.79-16.7-61.01c-1.16-4.25.35-8.78,3.83-11.48l49.32-38.25h-62.56c-4.12,0-8-2.12-9.73-5.86-7.75-16.72-16.61-60.26-19.52-61.17-6.01-1.86-3.89,3.31-5.08,6.42-6.62,17.24-11.66,35.33-17.22,53.01Z"/>
  <path class="st0" d="M279.89,160.92c3.35,5.57-.66,12.66-7.16,12.66h-37.76c-4.57,0-21.2,4.97-26.86,6.67-4.86,1.46-16.73,7.73-24.5,9.59-3.45.83-6.99-1.05-8.73-4.15L79.41,15.99c-3.13-5.57.89-12.45,7.28-12.45h93.88c2.93,0,5.65,1.54,7.16,4.05l92.16,153.33Z"/>
  <path class="st0" d="M432.19,15.6l-84.52,171.04c-1.92,3.89-6.51,5.66-10.55,4.07l-30.61-12.03c-1.86-.73-3.4-2.11-4.33-3.88l-32.64-61.86c-1.27-2.41-1.29-5.3-.04-7.72l50.06-97.15c1.43-2.78,4.3-4.53,7.43-4.53h97.7c6.19,0,10.23,6.5,7.49,12.05Z"/>
</svg>