<?xml version="1.0" encoding="UTF-8"?>
<svg id="Capa_1" xmlns="http://www.w3.org/2000/svg" version="1.1" viewBox="0 0 512 188.89">
  <!-- Generator: Adobe Illustrator 29.8.2, SVG Export Plug-In . SVG Version: 2.1.1 Build 3)  -->
  <defs>
    <style>
      .st0 {
        fill: #fff;
      }
    </style>
  </defs>
  <path class="st0" d="M255.7,9.43l21.08,65.21,2.23-1.28,22.47-63.79,107.19-.13c20.93,3.03,34.1,19.39,28.92,40.93-1.54,6.39-6.28,8.51-9.35,13.7,17.66,10.33,15.89,37.92-.06,49.12-4.41,3.1-18.34,7.59-23.51,7.59h-62.7v-26.08h58.69c8.75,0,8.75-16.05,0-16.05h-59.69v-27.09h58.69c5.43,0,10.22-14.76-1.24-16.82l-73.54.22-30.19,85.67-33.49-.84-30.05-83.31-12.55-.99V9.43h37.12Z"/>
  <path class="st0" d="M510.5,179.98l-3.38.88c-14.08-2.85-28.23-5.54-42.43-7.74-131.86-20.42-269.9-20.72-401.94-1-19.37,2.89-38.71,7.59-57.81,10.41-.97.14-4.05,1.11-4.06-.04,39.38-12.5,80.09-21.44,121.06-27.42,129.61-18.93,262.74-10.87,388.56,24.92Z"/>
  <rect class="st0" x="176.45" y="8.43" width="33.1" height="112.36"/>
  <polygon class="st0" points="158.39 49.56 158.39 75.64 110.74 75.64 109.23 77.15 109.23 120.78 76.13 120.78 76.13 49.56 158.39 49.56"/>
  <rect class="st0" x="76.13" y="8.43" width="90.29" height="26.08"/>
  <path class="st0" d="M444.15,110.89l1.65,3.87,3.51-4.01v7.02s-1.49-3.01-1.49-3.01l-2.49,3.02-2.01-3.01-1,3v-6.02s-3.52,0-3.52,0l-1.5,6.02c-.23-1.69.39-3.81.01-5.37-.28-1.18-2.46.01-2.02-1.64l8.88.13Z"/>
</svg>